<!DOCTYPE svg PUBLIC "-//W3C//DTD SVG 1.1//EN" "http://www.w3.org/Graphics/SVG/1.1/DTD/svg11.dtd">
<!-- Uploaded to: SVG Repo, www.svgrepo.com, Transformed by: SVG Repo Mixer Tools -->
<svg height="50px" width="50px" version="1.1" id="Capa_1" xmlns="http://www.w3.org/2000/svg" xmlns:xlink="http://www.w3.org/1999/xlink" viewBox="-5.9 -5.9 70.83 70.83" xml:space="preserve" fill="#a986f2" transform="matrix(1, 0, 0, 1, 0, 0)" stroke="#a986f2" stroke-width="0.0005903400000000001">

<g id="SVGRepo_bgCarrier" stroke-width="0" transform="translate(0,0), scale(1)">

<path transform="translate(-5.9, -5.9), scale(4.426875)" fill="#7ed0ec" d="M9.166.33a2.25 2.25 0 00-2.332 0l-5.25 3.182A2.25 2.25 0 00.5 5.436v5.128a2.25 2.25 0 001.084 1.924l5.25 3.182a2.25 2.25 0 002.332 0l5.25-3.182a2.25 2.25 0 001.084-1.924V5.436a2.25 2.25 0 00-1.084-1.924L9.166.33z" strokewidth="0"/>

</g>

<g id="SVGRepo_tracerCarrier" stroke-linecap="round" stroke-linejoin="round" stroke="#CCCCCC" stroke-width="3.0697680000000003"/>

<g id="SVGRepo_iconCarrier"> <g> <g> <circle style="fill:#2517ca;" cx="43.349" cy="8.217" r="4.57"/> <path style="fill:#2517ca;" d="M56.822,37.903c-1.656-1.575-5.825-2.234-9.781-2.492c-0.001-0.006-0.003-0.014-0.004-0.02 c-1.204-4.482-1.533-9.157-1.945-13.829l8.375,4.477c0.356,0.191,0.74,0.282,1.118,0.282c0.849,0,1.668-0.457,2.097-1.256 c0.619-1.158,0.184-2.598-0.976-3.217l-11.972-6.4c-0.309-0.165-0.639-0.25-0.967-0.271C42.47,15,42.14,14.866,41.783,14.778 c-0.361-0.169-0.768-0.26-1.191-0.225c-5.771,0.472-7.033,4.324-7.955,7.136c-0.346,1.062-0.674,2.063-1.189,2.953 c-0.662,1.132-0.279,2.588,0.854,3.25c0.375,0.22,0.789,0.324,1.195,0.324c0.816,0,1.612-0.422,2.055-1.18 c0.772-1.326,1.215-2.677,1.605-3.871c0.001-0.004,0.003-0.008,0.004-0.012c0.418,4.82,0.846,9.745,2.076,14.328 c0.585,2.184,2.385,3.023,4.126,2.865c0.256,0.095,0.526,0.16,0.815,0.166c3.853,0.104,7.979,0.658,9.047,1.207 c0.44,0.781,0.983,4.25,0.074,10.881c-0.199,1.431,0.803,2.749,2.232,2.943c0.119,0.019,0.238,0.025,0.357,0.025 c1.285,0,2.404-0.947,2.584-2.259C59.592,45.191,59.035,40.006,56.822,37.903z"/> <polygon style="fill:#2517ca;" points="35.31,29.997 31.31,29.997 31.305,53.876 50.683,53.876 51.872,42.947 38.161,41.756 "/> <circle style="fill:#2517ca;" cx="16.102" cy="8.035" r="4.569"/> <path style="fill:#2517ca;" d="M26.814,21.507c-0.92-2.813-2.18-6.666-7.952-7.138c-0.425-0.034-0.829,0.056-1.191,0.226 c-0.93,0.229-1.66,0.779-2.175,1.517l-5.838,3.276l-5.767-3.546c-1.202-0.74-2.773-0.364-3.512,0.835 c-0.739,1.202-0.364,2.773,0.837,3.513l7.045,4.333c0.41,0.252,0.873,0.378,1.337,0.378c0.431,0,0.861-0.11,1.249-0.327 l3.398-1.907c-0.368,4.24-0.739,8.47-1.832,12.541c-0.001,0.006-0.002,0.014-0.004,0.021c-3.955,0.258-8.125,0.918-9.781,2.492 c-2.212,2.104-2.768,7.287-1.652,15.408c0.18,1.31,1.301,2.258,2.585,2.258c0.119,0,0.238-0.008,0.359-0.022 c1.43-0.196,2.43-1.515,2.234-2.942C5.242,45.79,5.784,42.321,6.226,41.54c1.068-0.551,5.195-1.104,9.049-1.205 c0.29-0.01,0.561-0.074,0.818-0.166c1.74,0.153,3.538-0.688,4.124-2.867c1.231-4.582,1.657-9.506,2.076-14.328 c0.001,0.004,0.003,0.008,0.004,0.013c0.39,1.192,0.832,2.543,1.606,3.87c0.441,0.756,1.237,1.178,2.053,1.178 c0.407,0,0.819-0.104,1.197-0.323c1.132-0.662,1.516-2.116,0.854-3.25C27.488,23.57,27.16,22.568,26.814,21.507z"/> <polygon style="fill:#2517ca;" points="24.141,29.814 21.29,41.575 7.579,42.762 8.767,53.694 28.148,53.694 28.14,29.814 "/> </g> </g> </g>

</svg>